<svg width="512" height="512" viewBox="0 0 512 512" fill="none" xmlns="http://www.w3.org/2000/svg">
  <defs>
    <linearGradient id="iconGradient" x1="92" y1="420" x2="422" y2="90" gradientUnits="userSpaceOnUse">
      <stop stop-color="#FF7C74"/>
      <stop offset="1" stop-color="#FF5E69"/>
    </linearGradient>
    <filter id="iconGlow" x="0" y="0" width="512" height="512" filterUnits="userSpaceOnUse" color-interpolation-filters="sRGB">
      <feGaussianBlur stdDeviation="14" result="blur"/>
      <feMerge>
        <feMergeNode in="blur"/>
        <feMergeNode in="SourceGraphic"/>
      </feMerge>
    </filter>
  </defs>
  <rect width="512" height="512" rx="120" fill="#0C0C0F"/>
  <g filter="url(#iconGlow)" stroke="url(#iconGradient)" stroke-linecap="round" stroke-linejoin="round">
    <path d="M150 355L73 432" stroke-width="34"/>
    <path d="M206 90C297 53 398 103 431 196" stroke-width="20"/>
    <path d="M187 122C264 84 352 113 398 182" stroke-width="20"/>
    <path d="M176 155C239 122 315 136 364 190" stroke-width="20"/>
    <path d="M360 93H449" stroke-width="38"/>
    <path d="M449 93C468 93 483 108 483 127V170" stroke-width="38"/>
    <circle cx="270" cy="247" r="102" stroke-width="22"/>
    <circle cx="270" cy="247" r="35" stroke-width="18"/>
    <path d="M270 176V211" stroke-width="16"/>
    <path d="M270 283V318" stroke-width="16"/>
    <path d="M199 247H234" stroke-width="16"/>
    <path d="M306 247H341" stroke-width="16"/>
    <path d="M220 197L244 221" stroke-width="16"/>
    <path d="M296 273L320 297" stroke-width="16"/>
    <path d="M320 197L296 221" stroke-width="16"/>
    <path d="M244 273L220 297" stroke-width="16"/>
    <path d="M162 89C93 125 49 196 49 276C49 393 144 488 261 488C341 488 412 443 448 375" stroke-width="22"/>
    <path d="M170 122C114 153 78 212 78 280C78 379 159 460 258 460C326 460 386 423 417 367" stroke-width="20"/>
    <path d="M183 156C136 183 107 234 107 292C107 378 177 448 263 448C321 448 372 419 399 372" stroke-width="18"/>
  </g>
</svg>
