<svg width="1600" height="840" viewBox="0 0 1600 840" fill="none" xmlns="http://www.w3.org/2000/svg">
  <defs>
    <linearGradient id="wordGradient" x1="230" y1="620" x2="1120" y2="160" gradientUnits="userSpaceOnUse">
      <stop stop-color="#FF7C74"/>
      <stop offset="1" stop-color="#FF5E69"/>
    </linearGradient>
    <filter id="pinkGlow" x="60" y="50" width="860" height="740" filterUnits="userSpaceOnUse" color-interpolation-filters="sRGB">
      <feGaussianBlur stdDeviation="26" result="blur"/>
      <feMerge>
        <feMergeNode in="blur"/>
        <feMergeNode in="SourceGraphic"/>
      </feMerge>
    </filter>
    <filter id="whiteGlow" x="720" y="150" width="760" height="420" filterUnits="userSpaceOnUse" color-interpolation-filters="sRGB">
      <feGaussianBlur stdDeviation="22" result="blur"/>
      <feMerge>
        <feMergeNode in="blur"/>
        <feMergeNode in="SourceGraphic"/>
      </feMerge>
    </filter>
  </defs>
  <rect width="1600" height="840" fill="#050505"/>
  <g filter="url(#pinkGlow)" stroke="url(#wordGradient)" stroke-linecap="round" stroke-linejoin="round">
    <path d="M320 556L228 648" stroke-width="40"/>
    <path d="M392 169C501 124 616 168 674 262" stroke-width="22"/>
    <path d="M370 206C464 161 570 184 636 258" stroke-width="22"/>
    <path d="M354 245C431 208 523 219 589 280" stroke-width="22"/>
    <path d="M605 188H712" stroke-width="44"/>
    <path d="M712 188C734 188 751 205 751 227V273" stroke-width="44"/>
    <circle cx="492" cy="353" r="125" stroke-width="24"/>
    <circle cx="492" cy="353" r="41" stroke-width="18"/>
    <path d="M492 272V315" stroke-width="18"/>
    <path d="M492 391V434" stroke-width="18"/>
    <path d="M410 353H453" stroke-width="18"/>
    <path d="M531 353H574" stroke-width="18"/>
    <path d="M433 294L461 322" stroke-width="18"/>
    <path d="M551 384L579 412" stroke-width="18"/>
    <path d="M579 294L551 322" stroke-width="18"/>
    <path d="M461 384L433 412" stroke-width="18"/>
    <path d="M337 162C250 204 192 292 192 394C192 535 307 650 448 650C549 650 638 592 681 505" stroke-width="24"/>
    <path d="M354 199C282 236 235 310 235 395C235 519 336 620 460 620C545 620 620 574 658 504" stroke-width="22"/>
    <path d="M373 238C315 270 279 330 279 399C279 506 366 593 473 593C543 593 603 557 635 499" stroke-width="20"/>
  </g>
  <g filter="url(#whiteGlow)">
    <text
      x="690"
      y="450"
      fill="url(#wordGradient)"
      font-family="Arial, Helvetica, sans-serif"
      font-size="170"
      font-style="italic"
      font-weight="800"
    >
      Car
    </text>
    <text
      x="960"
      y="450"
      fill="#F8F8F8"
      font-family="Arial, Helvetica, sans-serif"
      font-size="170"
      font-style="italic"
      font-weight="800"
    >
      Guess
    </text>
  </g>
</svg>
